<mxfile host="app.diagrams.net" modified="2024-05-13T03:11:41.294Z" agent="Mozilla/5.0 (Windows NT 10.0; Win64; x64) AppleWebKit/537.36 (KHTML, like Gecko) Chrome/124.0.0.0 Safari/537.36" etag="0nmZeCUjiSL0OQOJMWDE" scale="1" border="0" version="24.3.1" type="device">
  <diagram name="Page-1" id="59c5HRAMxNg7sD5Z9-QN">
    <mxGraphModel dx="1125" dy="1134" grid="0" gridSize="10" guides="1" tooltips="1" connect="1" arrows="1" fold="1" page="1" pageScale="1" pageWidth="850" pageHeight="1100" background="#000000" math="0" shadow="0">
      <root>
        <mxCell id="0" />
        <mxCell id="1" parent="0" />
        <mxCell id="ok3Zok4iZOwkATNosw89-10" style="edgeStyle=orthogonalEdgeStyle;rounded=0;orthogonalLoop=1;jettySize=auto;html=1;exitX=1;exitY=0.5;exitDx=0;exitDy=0;entryX=0;entryY=0.5;entryDx=0;entryDy=0;strokeColor=#FFFFFF;" edge="1" parent="1" source="cS1Z9VzvLfPcADYEJ1mt-17" target="ok3Zok4iZOwkATNosw89-8">
          <mxGeometry relative="1" as="geometry" />
        </mxCell>
        <mxCell id="cS1Z9VzvLfPcADYEJ1mt-17" value="&lt;span style=&quot;font-size: 12px; text-align: left; white-space-collapse: preserve; background-color: rgb(0, 0, 0);&quot;&gt;Audio Gate&lt;/span&gt;&lt;div&gt;&lt;span style=&quot;font-size: 12px; text-align: left; white-space-collapse: preserve; background-color: rgb(0, 0, 0);&quot;&gt;(nn.Linear &amp;amp; σ)&lt;/span&gt;&lt;/div&gt;" style="rounded=0;whiteSpace=wrap;html=1;fillColor=none;strokeColor=#FFFFFF;fontColor=#FFFFFF;fontFamily=Helvetica;fontSize=12;" parent="1" vertex="1">
          <mxGeometry x="512" y="183" width="120" height="60" as="geometry" />
        </mxCell>
        <mxCell id="ok3Zok4iZOwkATNosw89-4" style="edgeStyle=orthogonalEdgeStyle;rounded=0;orthogonalLoop=1;jettySize=auto;html=1;exitX=1;exitY=0.25;exitDx=0;exitDy=0;entryX=0;entryY=0.5;entryDx=0;entryDy=0;strokeColor=#FFFFFF;" edge="1" parent="1" source="cS1Z9VzvLfPcADYEJ1mt-20" target="ok3Zok4iZOwkATNosw89-2">
          <mxGeometry relative="1" as="geometry" />
        </mxCell>
        <mxCell id="ok3Zok4iZOwkATNosw89-5" style="edgeStyle=orthogonalEdgeStyle;rounded=0;orthogonalLoop=1;jettySize=auto;html=1;exitX=1;exitY=0.75;exitDx=0;exitDy=0;entryX=0;entryY=0.25;entryDx=0;entryDy=0;strokeColor=#FFFFFF;" edge="1" parent="1" source="cS1Z9VzvLfPcADYEJ1mt-20" target="cS1Z9VzvLfPcADYEJ1mt-17">
          <mxGeometry relative="1" as="geometry" />
        </mxCell>
        <mxCell id="cS1Z9VzvLfPcADYEJ1mt-20" value="Output Audio" style="rounded=0;whiteSpace=wrap;html=1;fillColor=none;strokeColor=#FFFFFF;fontColor=#FFFFFF;" parent="1" vertex="1">
          <mxGeometry x="312" y="153" width="120" height="60" as="geometry" />
        </mxCell>
        <mxCell id="ok3Zok4iZOwkATNosw89-7" style="edgeStyle=orthogonalEdgeStyle;rounded=0;orthogonalLoop=1;jettySize=auto;html=1;exitX=1;exitY=0.75;exitDx=0;exitDy=0;entryX=0;entryY=0.5;entryDx=0;entryDy=0;strokeColor=#FFFFFF;" edge="1" parent="1" source="cS1Z9VzvLfPcADYEJ1mt-21" target="ok3Zok4iZOwkATNosw89-1">
          <mxGeometry relative="1" as="geometry" />
        </mxCell>
        <mxCell id="cS1Z9VzvLfPcADYEJ1mt-21" value="Output Text" style="rounded=0;whiteSpace=wrap;html=1;fillColor=none;strokeColor=#FFFFFF;fontColor=#FFFFFF;" parent="1" vertex="1">
          <mxGeometry x="312" y="253" width="120" height="60" as="geometry" />
        </mxCell>
        <mxCell id="cS1Z9VzvLfPcADYEJ1mt-26" value="" style="edgeStyle=orthogonalEdgeStyle;rounded=0;orthogonalLoop=1;jettySize=auto;html=1;" parent="1" edge="1">
          <mxGeometry relative="1" as="geometry">
            <mxPoint x="254" y="200.5" as="sourcePoint" />
            <mxPoint x="254" y="241" as="targetPoint" />
          </mxGeometry>
        </mxCell>
        <mxCell id="cS1Z9VzvLfPcADYEJ1mt-31" value="Final Prediction" style="rounded=0;whiteSpace=wrap;html=1;fillColor=none;strokeColor=#FFFFFF;fontColor=#FFFFFF;" parent="1" vertex="1">
          <mxGeometry x="886" y="226" width="120" height="60" as="geometry" />
        </mxCell>
        <mxCell id="ok3Zok4iZOwkATNosw89-1" value="&lt;span style=&quot;font-size: 12px; text-align: left; white-space-collapse: preserve; background-color: rgb(0, 0, 0);&quot;&gt;Text Gate&lt;/span&gt;&lt;div&gt;&lt;span style=&quot;font-size: 12px; text-align: left; white-space-collapse: preserve; background-color: rgb(0, 0, 0);&quot;&gt;(nn.Linear &amp;amp; σ)&lt;/span&gt;&lt;/div&gt;" style="rounded=0;whiteSpace=wrap;html=1;fillColor=none;strokeColor=#FFFFFF;fontColor=#FFFFFF;fontFamily=Helvetica;fontSize=12;" vertex="1" parent="1">
          <mxGeometry x="512" y="339" width="120" height="60" as="geometry" />
        </mxCell>
        <mxCell id="ok3Zok4iZOwkATNosw89-9" style="edgeStyle=orthogonalEdgeStyle;rounded=0;orthogonalLoop=1;jettySize=auto;html=1;exitX=1;exitY=0.5;exitDx=0;exitDy=0;entryX=0;entryY=0.25;entryDx=0;entryDy=0;strokeColor=#FFFFFF;" edge="1" parent="1" source="ok3Zok4iZOwkATNosw89-2" target="ok3Zok4iZOwkATNosw89-8">
          <mxGeometry relative="1" as="geometry">
            <Array as="points">
              <mxPoint x="690" y="132" />
              <mxPoint x="690" y="234" />
            </Array>
          </mxGeometry>
        </mxCell>
        <mxCell id="ok3Zok4iZOwkATNosw89-2" value="&lt;span style=&quot;font-size: 12px; text-align: left; white-space-collapse: preserve; background-color: rgb(0, 0, 0);&quot;&gt;Audio Transform Layer&lt;/span&gt;&lt;div&gt;&lt;span style=&quot;font-size: 12px; text-align: left; white-space-collapse: preserve; background-color: rgb(0, 0, 0);&quot;&gt;(nn.Linear, 1-&amp;gt;50)&lt;/span&gt;&lt;/div&gt;" style="rounded=0;whiteSpace=wrap;html=1;fillColor=none;strokeColor=#FFFFFF;fontColor=#FFFFFF;fontFamily=Helvetica;fontSize=12;" vertex="1" parent="1">
          <mxGeometry x="512" y="102" width="120" height="60" as="geometry" />
        </mxCell>
        <mxCell id="ok3Zok4iZOwkATNosw89-3" value="&lt;span style=&quot;font-size: 12px; text-align: left; white-space-collapse: preserve; background-color: rgb(0, 0, 0);&quot;&gt;Text Transform Layer&lt;/span&gt;&lt;div&gt;&lt;span style=&quot;font-size: 12px; text-align: left; white-space-collapse: preserve; background-color: rgb(0, 0, 0);&quot;&gt;(nn.Linear, 1-&amp;gt;50)&lt;/span&gt;&lt;/div&gt;" style="rounded=0;whiteSpace=wrap;html=1;fillColor=none;strokeColor=#FFFFFF;fontColor=#FFFFFF;fontFamily=Helvetica;fontSize=12;" vertex="1" parent="1">
          <mxGeometry x="512" y="259" width="120" height="60" as="geometry" />
        </mxCell>
        <mxCell id="ok3Zok4iZOwkATNosw89-6" style="edgeStyle=orthogonalEdgeStyle;rounded=0;orthogonalLoop=1;jettySize=auto;html=1;exitX=1;exitY=0.5;exitDx=0;exitDy=0;entryX=-0.008;entryY=0.4;entryDx=0;entryDy=0;entryPerimeter=0;strokeColor=#FFFFFF;" edge="1" parent="1" source="cS1Z9VzvLfPcADYEJ1mt-21" target="ok3Zok4iZOwkATNosw89-3">
          <mxGeometry relative="1" as="geometry" />
        </mxCell>
        <mxCell id="ok3Zok4iZOwkATNosw89-13" style="edgeStyle=orthogonalEdgeStyle;rounded=0;orthogonalLoop=1;jettySize=auto;html=1;exitX=1;exitY=0.5;exitDx=0;exitDy=0;entryX=0;entryY=0.5;entryDx=0;entryDy=0;strokeColor=#FFFFFF;" edge="1" parent="1" source="ok3Zok4iZOwkATNosw89-8" target="cS1Z9VzvLfPcADYEJ1mt-31">
          <mxGeometry relative="1" as="geometry" />
        </mxCell>
        <mxCell id="ok3Zok4iZOwkATNosw89-8" value="&lt;div style=&quot;&quot;&gt;&lt;span style=&quot;white-space-collapse: preserve; background-color: rgb(0, 0, 0);&quot;&gt;Element-wise Multiplication &lt;/span&gt;&lt;/div&gt;" style="rounded=0;whiteSpace=wrap;html=1;fillColor=none;strokeColor=#FFFFFF;fontColor=#FFFFFF;fontFamily=Helvetica;fontSize=12;align=center;" vertex="1" parent="1">
          <mxGeometry x="727" y="211" width="120" height="90" as="geometry" />
        </mxCell>
        <mxCell id="ok3Zok4iZOwkATNosw89-11" style="edgeStyle=orthogonalEdgeStyle;rounded=0;orthogonalLoop=1;jettySize=auto;html=1;exitX=1;exitY=0.5;exitDx=0;exitDy=0;strokeColor=#FFFFFF;" edge="1" parent="1" source="ok3Zok4iZOwkATNosw89-3">
          <mxGeometry relative="1" as="geometry">
            <mxPoint x="727" y="270" as="targetPoint" />
          </mxGeometry>
        </mxCell>
        <mxCell id="ok3Zok4iZOwkATNosw89-12" style="edgeStyle=orthogonalEdgeStyle;rounded=0;orthogonalLoop=1;jettySize=auto;html=1;exitX=1;exitY=0.5;exitDx=0;exitDy=0;entryX=0.017;entryY=0.867;entryDx=0;entryDy=0;entryPerimeter=0;strokeColor=#FFFFFF;" edge="1" parent="1" source="ok3Zok4iZOwkATNosw89-1" target="ok3Zok4iZOwkATNosw89-8">
          <mxGeometry relative="1" as="geometry">
            <Array as="points">
              <mxPoint x="695" y="369" />
              <mxPoint x="695" y="289" />
            </Array>
          </mxGeometry>
        </mxCell>
      </root>
    </mxGraphModel>
  </diagram>
</mxfile>
